# xmcd
#
# Track frame offsets: 
#        150
#        12068
#        32398
#        37159
#        51452
#        65674
#        71355
#        78737
#        89656
#        106529
#        120446
#        132875
#        146773
#        167228
#        186856
#        211476
#        228669
#        249313
#        260834
#        276164
#        294021
#        303867
#
# Disc length: 4084 seconds
#
# Revision: 0
# Processed by: cddbd v1.4PL0 Copyright (c) Steve Scherf et al.
# Submitted via: ExactAudioCopy v0.90b4
#
DISCID=3f0ff216
DTITLE=Duster Bennett - Shady Little Baby
DYEAR=2000
DGENRE=Blues
TTITLE0=San Francisco Bay Blues
TTITLE1=Beggin' Woman
TTITLE2=Georgina
TTITLE3=Georgina 2
TTITLE4=Take The Train Out In The Morning
TTITLE5=Gotta Hold My Baby
TTITLE6=Blow
TTITLE7=Top Jam
TTITLE8=Shady Little Baby
TTITLE9=Worried Mind
TTITLE10=Country Jam
TTITLE11=Morning Star
TTITLE12=All I Need
TTITLE13=Blue River Rising
TTITLE14=Back In The Same Old bag
TTITLE15=Cold Chills
TTITLE16=a) Gone Gershwin b) Summertime
TTITLE17=Take Care (But Don't Take It Easy)
TTITLE18=Pretty Little Thing
TTITLE19=Comin' Home (Sailor's Song)
TTITLE20=Fingertips
TTITLE21=Rock Of Ages Cleft For Me (Narrative)
EXTD=
EXTT0=
EXTT1=
EXTT2=
EXTT3=
EXTT4=
EXTT5=
EXTT6=
EXTT7=
EXTT8=
EXTT9=
EXTT10=
EXTT11=
EXTT12=
EXTT13=
EXTT14=
EXTT15=
EXTT16=
EXTT17=
EXTT18=
EXTT19=
EXTT20=
EXTT21=
PLAYORDER=
